 <svg  version="1.0" xmlns="http://www.w3.org/2000/svg"  width="591.000000pt" height="264.000000pt" viewBox="0 0 591.000000 264.000000"  preserveAspectRatio="xMidYMid meet">  <g transform="translate(0.000000,264.000000) scale(0.100000,-0.100000)" fill="#a5126f" stroke="none"> <path d="M2848 2415 c-34 -35 -50 -79 -50 -143 0 -40 29 -62 84 -62 46 0 48 -1 48 -29 0 -16 -7 -34 -15 -41 -8 -7 -15 -20 -15 -30 0 -18 30 -50 46 -50 14 0 44 65 44 95 0 29 24 33 50 10 47 -43 130 -15 130 44 0 15 7 36 15 47 31 42 1 104 -52 104 -15 1 -39 7 -53 15 -14 8 -39 14 -56 15 -17 0 -37 7 -44 15 -7 8 -20 15 -29 15 -9 0 -25 7 -35 15 -27 20 -28 20 -68 -20z m141 -124 c19 -12 4 -31 -25 -31 -26 0 -31 9 -12 28 14 14 19 15 37 3z"/> <path d="M3283 2273 c-13 -14 -23 -38 -23 -52 0 -14 -7 -35 -15 -45 -39 -52 7 -116 83 -116 49 0 55 -6 37 -41 -22 -42 -19 -76 7 -82 29 -8 33 -4 48 48 10 36 17 45 35 45 13 0 25 -7 29 -15 4 -10 20 -15 50 -15 43 0 47 2 64 38 23 44 35 113 26 146 -4 19 -16 26 -57 35 -29 7 -68 15 -87 20 -19 4 -60 20 -91 34 -68 33 -78 33 -106 0z m141 -129 c9 -3 16 -15 16 -26 0 -29 -44 -20 -48 10 -3 23 4 27 32 16z"/> <path d="M3728 2133 c-32 -39 -55 -119 -50 -174 2 -19 43 -39 81 -39 42 0 56 -22 38 -60 -14 -27 -14 -32 2 -51 12 -16 23 -20 39 -15 18 6 22 15 22 47 0 36 2 39 29 39 16 0 34 -7 41 -15 17 -21 73 -19 93 3 10 10 17 29 17 41 0 12 7 32 16 46 8 13 14 38 12 57 -3 28 -10 37 -48 56 -24 12 -59 22 -77 22 -18 0 -62 14 -96 30 -73 34 -98 37 -119 13z m140 -143 c23 -19 22 -40 -2 -40 -17 0 -58 45 -49 53 11 11 27 7 51 -13z"/> <path d="M2643 2096 c-32 -12 -42 -21 -109 -106 -33 -41 -56 -60 -94 -76 -8 -3 -28 -12 -45 -19 -63 -28 -140 -45 -201 -45 -59 0 -64 2 -76 27 -17 35 -58 51 -93 35 -14 -7 -25 -20 -25 -31 0 -11 -4 -22 -9 -26 -17 -10 -1743 -5 -1786 5 -55 13 -55 13 -55 -15 0 -19 7 -26 28 -31 15 -3 41 -12 59 -20 17 -8 35 -14 41 -14 5 0 20 -11 33 -25 13 -13 29 -25 36 -25 6 0 18 -7 26 -15 8 -7 26 -17 41 -21 24 -6 26 -4 26 25 0 34 -22 51 -65 51 -15 0 -24 4 -20 10 3 6 17 7 29 4 18 -4 30 2 49 22 l26 28 9 -23 c8 -24 9 -24 173 -22 151 2 166 4 186 23 l23 21 8 -23 c8 -23 10 -23 173 -21 147 2 166 4 185 22 21 19 21 19 30 -2 9 -20 16 -21 167 -20 144 0 160 2 184 21 l27 21 11 -21 c11 -21 18 -21 201 -21 l189 -1 3 37 c4 41 26 56 49 32 14 -14 16 -64 15 -403 -1 -328 -3 -389 -16 -402 -24 -24 -46 -7 -47 35 0 21 -2 182 -2 358 -2 314 -2 320 -22 317 -60 -10 -320 -10 -332 0 -22 18 -35 -4 -31 -52 l3 -43 172 2 c176 2 203 -3 170 -36 -12 -12 -44 -15 -155 -16 -122 -1 -143 1 -161 17 -18 17 -19 17 -24 -1 -3 -10 -4 -65 -4 -122 l2 -105 171 3 c144 2 172 0 183 -13 11 -13 10 -17 -5 -23 -20 -8 -294 -10 -329 -2 -18 4 -20 -1 -20 -46 0 -45 2 -50 20 -46 35 8 309 6 329 -2 15 -6 16 -10 5 -23 -11 -13 -39 -15 -183 -13 l-171 2 0 -64 c0 -35 -4 -74 -9 -87 l-8 -23 -31 31 c-20 20 -37 28 -49 24 -22 -7 -88 14 -88 28 0 6 24 9 63 7 l62 -4 0 45 0 45 -122 -4 c-122 -3 -205 11 -186 30 13 13 251 21 273 9 25 -13 42 10 38 51 l-3 33 -145 2 c-80 1 -154 3 -165 5 -18 4 -20 -2 -21 -51 -1 -30 -5 -63 -9 -73 -4 -10 -4 -22 1 -27 12 -11 73 -47 101 -59 11 -5 24 -15 28 -20 3 -6 15 -11 25 -11 10 0 32 -12 47 -26 52 -48 71 -51 315 -46 l227 4 6 -23 c4 -13 18 -33 32 -43 24 -17 28 -18 52 -3 14 8 32 27 40 42 13 26 16 27 65 21 28 -3 89 -9 136 -12 47 -4 94 -13 105 -20 11 -8 29 -14 41 -14 12 0 35 -7 51 -14 15 -8 35 -18 43 -21 69 -27 220 -157 220 -189 0 -3 10 -16 22 -28 24 -24 17 -23 256 -18 108 2 137 -1 157 -14 13 -9 33 -16 43 -16 11 0 25 -7 32 -15 7 -8 19 -15 28 -15 17 0 85 -53 158 -125 50 -49 94 -71 162 -82 32 -5 78 9 144 43 14 8 33 14 41 14 8 0 20 7 27 15 7 8 21 15 30 15 10 0 33 8 52 17 18 9 45 22 60 30 14 7 39 13 55 13 15 0 46 5 67 11 43 12 177 -2 231 -25 106 -44 117 -52 221 -154 49 -47 82 -72 97 -72 13 0 32 -7 43 -15 10 -8 29 -15 42 -15 13 0 35 -6 50 -14 25 -12 183 -30 257 -29 77 1 194 16 228 29 20 8 48 14 61 14 13 0 29 7 36 15 7 8 23 15 35 15 12 0 28 7 35 15 7 8 21 15 31 15 10 0 21 5 24 11 4 5 17 14 28 20 40 17 62 34 122 95 88 89 117 158 123 287 2 66 -1 97 -12 122 -9 18 -16 42 -16 53 0 12 -5 24 -11 27 -5 4 -15 17 -20 28 -26 58 -50 85 -114 133 -56 41 -100 64 -122 64 -10 0 -27 6 -38 14 -11 7 -33 16 -50 18 -28 5 -48 11 -127 39 -18 7 -53 14 -78 17 -25 2 -54 11 -65 18 -11 8 -29 14 -40 14 -11 0 -29 7 -39 15 -11 8 -29 15 -41 15 -12 0 -30 7 -41 15 -10 8 -29 15 -42 15 -13 0 -33 5 -45 12 -12 6 -38 15 -57 19 -96 21 -160 39 -210 59 -30 12 -68 25 -85 30 -28 8 -55 16 -130 42 -16 6 -52 14 -80 18 -50 8 -101 25 -142 48 -12 7 -32 12 -45 12 -13 0 -32 7 -42 15 -11 8 -32 15 -46 15 -14 0 -35 7 -46 15 -10 8 -30 15 -44 15 -14 0 -43 7 -65 15 -22 8 -54 14 -71 15 -17 0 -37 7 -44 15 -7 8 -22 15 -34 15 -11 0 -30 7 -40 15 -11 8 -31 15 -45 15 -14 1 -37 7 -51 15 -14 8 -34 14 -45 15 -11 0 -33 7 -49 15 -15 8 -41 15 -56 15 -15 0 -58 12 -96 26 -38 14 -80 28 -94 31 -14 3 -34 12 -45 19 -11 8 -33 14 -50 14 -16 0 -39 7 -49 15 -11 8 -30 15 -42 15 -12 0 -38 7 -57 15 -20 8 -55 15 -77 15 -22 0 -40 4 -40 10 0 5 -12 13 -27 16 -16 4 -34 11 -41 17 -13 10 -75 26 -127 32 -16 2 -44 -2 -62 -9z m151 -113 c3 -8 25 -11 66 -9 33 2 60 -1 60 -6 0 -7 -68 -13 -112 -10 -11 1 -15 -3 -12 -13 4 -9 -1 -18 -12 -22 -24 -9 -44 -28 -44 -43 0 -7 -8 -25 -17 -41 -14 -24 -15 -33 -5 -49 6 -11 12 -25 12 -32 0 -6 7 -20 17 -30 15 -17 12 -18 -83 -16 -54 1 -81 3 -59 5 22 3 47 10 55 17 8 7 23 16 33 19 23 8 22 24 -3 39 -11 7 -20 18 -20 23 0 23 -22 34 -41 22 -14 -9 -21 -9 -31 1 -15 15 -50 16 -66 0 -9 -9 -12 -9 -12 3 0 15 80 97 134 138 24 17 41 21 83 19 30 -2 55 -8 57 -15z m226 -43 c0 -5 -6 -10 -14 -10 -9 0 -12 -7 -9 -20 3 -11 1 -20 -5 -20 -10 0 -22 46 -14 55 9 9 42 5 42 -5z m90 -34 c0 -8 19 -18 45 -25 56 -14 113 -71 72 -71 -17 0 -60 -75 -67 -115 -4 -22 -10 -29 -23 -27 -10 2 -17 -3 -17 -12 0 -8 -3 -22 -7 -32 -5 -15 -2 -16 30 -10 24 4 37 3 37 -4 0 -19 -30 -23 -69 -10 -28 9 -161 13 -498 14 -478 1 -493 2 -493 42 0 12 73 14 439 14 241 0 466 3 500 6 78 9 76 28 -5 32 -61 3 -90 16 -61 28 14 5 17 21 17 89 l0 84 38 4 c20 2 43 4 50 5 6 1 12 -4 12 -12z m-172 -32 c29 -30 34 -40 29 -70 -14 -84 -113 -115 -171 -52 -24 26 -27 37 -23 71 7 50 47 86 96 87 26 0 42 -8 69 -36z m-268 -99 l0 -25 -222 0 c-251 0 -328 6 -328 26 0 16 51 19 338 22 l212 2 0 -25z m677 -2 c34 -19 63 -64 63 -96 -1 -27 -25 -57 -67 -82 -31 -18 -33 -18 -71 -1 -28 13 -44 29 -56 56 -16 37 -16 40 3 70 19 32 65 68 88 69 6 1 24 -7 40 -16z m248 -19 c7 -8 18 -14 22 -14 5 0 24 -11 43 -25 23 -17 28 -25 17 -25 -9 0 -17 -5 -17 -10 0 -6 -12 -21 -26 -34 -19 -16 -27 -33 -29 -62 -3 -58 -4 -59 -20 -38 -13 18 -14 17 -15 -18 l0 -38 -719 0 c-767 0 -742 -2 -725 45 6 14 85 15 693 14 377 0 699 2 714 6 43 11 26 30 -29 33 -65 3 -84 10 -64 22 10 6 13 23 11 54 -1 26 0 60 4 76 6 29 8 30 66 29 36 -1 66 -7 74 -15z m218 -132 c62 -64 22 -162 -67 -162 -31 0 -44 6 -67 33 -38 43 -38 85 0 126 39 42 95 44 134 3z m150 6 c12 -7 42 -15 67 -18 35 -4 48 -11 59 -32 14 -25 14 -29 -6 -50 -11 -13 -23 -32 -25 -43 -2 -16 -13 -20 -48 -23 -25 -2 -64 0 -87 3 -34 5 -43 10 -43 26 0 10 5 19 10 19 6 0 10 23 10 50 0 28 -4 50 -10 50 -5 0 -10 7 -10 15 0 19 52 20 83 3z m-1975 -95 c20 -39 7 -43 -154 -43 -128 0 -156 3 -160 15 -4 8 -4 22 0 30 4 12 31 15 155 15 133 0 151 -2 159 -17z m2271 -49 c28 -31 32 -41 28 -70 -3 -19 -18 -45 -33 -59 -85 -79 -214 39 -143 129 44 56 95 56 148 0z m121 36 c0 -5 -7 -10 -15 -10 -8 0 -15 5 -15 10 0 6 7 10 15 10 8 0 15 -4 15 -10z m-774 -35 c-3 -8 -13 -15 -23 -15 -17 1 -17 1 0 11 9 5 17 18 18 27 0 11 2 12 6 4 3 -7 2 -19 -1 -27z m871 0 c-2 -5 9 -18 25 -27 33 -21 36 -43 7 -51 -17 -5 -20 -11 -15 -31 4 -15 2 -26 -4 -26 -5 0 -10 -7 -10 -15 0 -12 -15 -15 -77 -15 -81 0 -124 13 -90 26 14 5 17 19 17 80 l0 73 75 -2 c45 -1 74 -6 72 -12z m-434 -88 c14 -38 18 -38 -959 -35 -522 2 -955 7 -962 11 -10 7 -10 12 -1 23 17 20 1914 21 1922 1z m627 -14 c41 -29 59 -56 60 -90 0 -18 -4 -33 -9 -33 -5 0 -12 -8 -16 -19 -3 -10 -23 -26 -44 -35 -37 -17 -39 -17 -71 3 -19 11 -42 35 -51 53 -15 30 -16 36 -2 63 19 38 62 74 88 75 11 0 32 -8 45 -17z m229 -43 c9 0 29 -11 45 -24 l30 -23 -21 -29 c-11 -16 -25 -60 -32 -99 l-12 -70 -217 2 c-119 2 -743 4 -1385 5 -1025 3 -1169 5 -1177 18 -5 8 -8 20 -7 25 3 7 480 12 1393 15 1226 4 1389 7 1389 20 0 12 -17 16 -77 18 -70 3 -99 15 -65 27 8 4 11 23 9 59 -3 46 -1 56 19 69 19 14 26 14 57 2 19 -8 42 -15 51 -15z m-839 -10 c-8 -5 -33 -9 -55 -8 l-40 1 40 7 c65 12 73 12 55 0z m-392 -7 c-10 -2 -26 -2 -35 0 -10 3 -2 5 17 5 19 0 27 -2 18 -5z m816 -50 c3 -8 4 -19 0 -24 -3 -5 -485 -9 -1178 -9 -1027 0 -1175 2 -1186 15 -14 17 -6 22 50 28 19 2 547 4 1172 5 1007 0 1137 -1 1142 -15z m615 -13 c13 0 47 -33 60 -58 28 -53 -24 -132 -87 -132 -42 0 -102 55 -102 93 0 56 63 115 108 101 8 -2 17 -4 21 -4z m248 -44 c-4 -10 4 -17 24 -21 16 -4 43 -13 59 -22 17 -8 38 -12 46 -9 8 3 17 -1 20 -9 3 -7 30 -33 61 -55 42 -32 62 -57 84 -104 16 -33 29 -70 29 -81 0 -11 7 -32 14 -47 14 -27 17 -118 4 -118 -3 0 -16 -21 -29 -47 -29 -62 -142 -171 -210 -204 -117 -56 -147 -69 -163 -69 -9 0 -16 -6 -16 -12 0 -10 -54 -13 -230 -15 -179 -1 -230 1 -230 11 0 7 -24 22 -52 34 -29 13 -69 35 -90 50 -20 15 -69 52 -110 82 -90 68 -156 101 -186 93 -16 -4 -22 -1 -22 11 0 17 -17 19 -135 18 -27 -1 -89 -1 -137 -1 -76 -1 -87 -3 -81 -17 5 -14 1 -15 -26 -9 -22 5 -37 2 -49 -8 -9 -8 -28 -17 -42 -20 -14 -3 -50 -15 -80 -27 -69 -27 -116 -39 -156 -40 -31 0 -52 12 -212 125 -66 47 -99 64 -113 60 -13 -4 -19 -2 -19 8 0 18 -44 30 -72 21 -16 -5 -20 -3 -15 9 4 12 -17 15 -141 19 -173 6 -207 17 -292 98 -30 28 -74 67 -98 85 -24 19 -43 37 -43 42 1 4 510 10 1133 13 893 4 1132 8 1136 18 7 21 36 13 66 -18 26 -27 36 -30 93 -30 35 0 63 3 63 8 0 4 13 14 29 23 33 19 61 70 61 109 0 36 16 48 70 53 25 2 49 4 54 5 4 1 6 -4 3 -12z m-3362 -81 c0 -19 -7 -20 -145 -22 -148 -3 -178 3 -167 31 6 14 26 16 159 14 145 -3 153 -4 153 -23z m3035 -755 c0 -5 -7 -10 -15 -10 -8 0 -15 5 -15 10 0 6 7 10 15 10 8 0 15 -4 15 -10z"/> <path d="M2843 1848 c-31 -15 -35 -43 -9 -67 29 -28 50 -26 70 3 18 28 13 52 -15 66 -21 12 -18 12 -46 -2z"/> <path d="M3276 1715 c-34 -35 -10 -79 41 -73 25 3 28 7 28 43 0 36 -3 40 -26 43 -15 2 -34 -4 -43 -13z"/> <path d="M3720 1590 c-25 -25 -25 -33 3 -66 21 -24 25 -25 45 -13 33 21 37 47 11 75 -27 29 -33 30 -59 4z"/> <path d="M4158 1459 c-22 -12 -23 -33 -2 -64 20 -31 35 -31 62 -2 27 28 27 39 4 60 -21 19 -39 21 -64 6z"/> <path d="M4591 1326 c-20 -23 -5 -65 24 -72 42 -10 57 1 53 43 -3 34 -6 38 -34 41 -19 2 -36 -3 -43 -12z"/> <path d="M5042 1208 c-19 -19 -15 -66 7 -78 28 -14 71 4 71 30 0 22 -33 60 -53 60 -7 0 -18 -5 -25 -12z"/> <path d="M4152 1970 c-12 -16 -22 -39 -22 -50 0 -12 -7 -34 -15 -50 -14 -27 -14 -32 0 -54 17 -26 62 -46 102 -46 32 0 38 -22 17 -55 -17 -26 -17 -28 1 -41 35 -26 56 -14 69 39 8 32 24 34 59 7 38 -30 72 -26 101 13 15 19 26 44 26 56 0 12 7 35 15 51 15 28 14 30 -20 65 -29 29 -43 35 -78 35 -23 1 -53 7 -67 15 -14 8 -35 14 -47 15 -12 0 -28 7 -37 15 -8 8 -30 15 -48 15 -26 0 -39 -7 -56 -30z m166 -137 c3 -19 -1 -23 -22 -23 -14 0 -26 4 -26 9 0 5 -3 17 -6 26 -6 13 -1 16 22 13 21 -2 30 -9 32 -25z"/> <path d="M4597 1832 c-10 -10 -17 -27 -17 -38 0 -10 -7 -28 -15 -38 -19 -25 -19 -90 -1 -106 8 -6 36 -15 63 -18 l48 -7 0 -50 c0 -46 2 -50 24 -50 19 0 27 7 33 33 10 39 32 42 87 10 37 -21 38 -21 63 -2 28 20 61 105 61 154 0 40 -37 69 -88 70 -22 0 -51 7 -65 15 -14 8 -35 14 -47 15 -12 0 -28 7 -37 15 -21 21 -89 19 -109 -3z m138 -132 c3 -11 15 -20 25 -20 10 0 22 -4 25 -10 4 -6 -8 -10 -28 -10 -36 0 -74 30 -62 49 10 18 33 12 40 -9z"/> <path d="M476 1759 c-21 -68 -12 -109 24 -109 9 0 25 -9 35 -20 10 -11 24 -20 32 -20 7 0 16 -7 19 -15 4 -8 14 -15 24 -15 10 0 25 -7 34 -15 8 -8 19 -15 24 -15 5 0 15 -7 22 -15 7 -8 21 -15 32 -15 11 0 33 -13 48 -30 37 -40 65 -41 55 -2 -4 15 -7 47 -6 72 2 60 -17 87 -48 70 -26 -13 -123 -6 -180 15 -51 18 -27 24 109 27 l115 3 0 39 0 39 -150 2 c-82 1 -158 6 -167 10 -12 4 -19 2 -22 -6z"/> <path d="M867 1763 c-9 -9 -9 -75 1 -89 4 -8 23 -9 52 -5 25 3 94 4 154 1 59 -3 112 -2 118 1 5 3 8 24 6 45 l-3 39 -147 -2 c-86 -1 -150 2 -153 7 -7 12 -19 13 -28 3z"/> <path d="M1254 1757 c-3 -8 -4 -32 -2 -52 l3 -37 160 1 c88 0 164 1 168 1 5 0 7 19 5 41 l-3 42 -145 1 c-80 1 -153 6 -162 10 -12 6 -20 3 -24 -7z"/> <path d="M5050 1704 c-18 -5 -47 -73 -56 -130 -9 -60 7 -84 56 -84 21 0 45 -3 54 -6 19 -7 21 -45 4 -62 -8 -8 -5 -14 15 -23 34 -15 57 -6 57 24 0 36 9 38 57 12 24 -14 50 -25 57 -25 27 0 66 41 66 69 0 15 7 36 15 47 35 46 -1 114 -61 114 -30 0 -107 22 -159 46 -35 16 -83 24 -105 18z m140 -139 c6 -8 9 -18 6 -23 -3 -6 4 -13 17 -17 21 -7 20 -8 -7 -12 -39 -6 -76 28 -56 51 16 20 24 20 40 1z"/> <path d="M1257 1633 c-3 -10 -4 -65 -4 -121 l2 -104 165 0 165 -1 3 37 c4 47 -12 70 -39 55 -11 -5 -72 -8 -141 -7 l-123 3 0 25 0 25 129 3 c78 2 133 -1 141 -8 21 -17 38 14 31 55 -8 41 -21 51 -42 34 -11 -9 -52 -13 -129 -13 -96 -1 -116 2 -133 17 -19 18 -20 18 -25 0z"/> <path d="M865 1619 c-4 -12 -4 -41 0 -65 3 -25 2 -52 -5 -64 -13 -24 -4 -60 14 -60 8 0 19 -7 26 -15 7 -8 25 -15 40 -15 17 0 34 -9 46 -25 10 -14 42 -37 69 -51 65 -33 90 -47 108 -62 30 -25 48 -4 44 52 l-3 51 -81 5 c-85 6 -100 11 -88 30 5 8 33 11 84 8 l76 -3 3 38 c4 44 -13 73 -33 57 -8 -7 -63 -10 -141 -8 l-129 3 0 25 0 25 129 3 c76 1 133 -2 140 -7 18 -15 36 7 36 45 0 40 -23 62 -46 43 -19 -16 -241 -16 -257 0 -16 16 -25 13 -32 -10z"/> </g> </svg> 